<svg xmlns="http://www.w3.org/2000/svg" width="200mm" height="200mm" viewBox="0 0 200 200"><path d="M29.261-.328A29.198 29.198 0 0 0 0 28.934V170.74A29.197 29.197 0 0 0 29.261 200h141.805a29.197 29.197 0 0 0 29.261-29.261V28.934A29.198 29.198 0 0 0 171.066-.328H29.261zm6.056 8.061h131.33c14.944 0 26.975 11.856 26.975 26.582v130.384c0 14.726-12.03 26.58-26.975 26.58H35.317c-14.944 0-26.974-11.854-26.974-26.58V34.315c0-14.726 12.03-26.582 26.974-26.582zm3.884 3.14c-15.298 0-27.614 12.136-27.614 27.21v123.533c0 15.075 12.316 27.211 27.614 27.211h123.85c15.299 0 27.614-12.136 27.614-27.21V38.082c0-15.074-12.315-27.21-27.613-27.21H39.202zM170.82 40.928c2.828.02 5.321.887 7.144 2.683 5.301 5.224 2.85 16.27-5.495 24.767l-52.723 53.677a33.276 33.276 0 0 1-5.974 4.84c-.35.483-.753.933-1.212 1.346-2.513 2.26-6.229 3.001-10.36 2.4-2.175-.024-4.15-.55-5.772-1.618-3.439-1.408-6.916-3.604-10.044-6.512L30.356 70.434c-8.868-8.243-11.473-18.96-5.84-24.029 5.634-5.069 17.309-2.513 26.177 5.73l52.308 48.622 50.33-51.24c5.476-5.575 12.09-8.626 17.488-8.588z" fill="#bde4ea"/></svg>